<?xml version="1.0" standalone="no"?>
<!DOCTYPE svg PUBLIC "-//W3C//DTD SVG 20010904//EN"
 "http://www.w3.org/TR/2001/REC-SVG-20010904/DTD/svg10.dtd">
<svg version="1.0" xmlns="http://www.w3.org/2000/svg"
 width="768.000000pt" height="768.000000pt" viewBox="0 0 768.000000 768.000000"
 preserveAspectRatio="xMidYMid meet">

<g transform="translate(0.000000,768.000000) scale(0.100000,-0.100000)"
fill="#000000" stroke="none">
<path d="M3969 5338 c-4 -8 -6 -2966 -2 -2980 4 -17 31 -18 379 -18 l374 0 0
1500 0 1500 -375 0 c-206 0 -376 -1 -376 -2z"/>
<path d="M2330 5085 c-8 -2 -49 -9 -90 -15 -429 -70 -810 -399 -959 -830 -81
-232 -82 -548 -5 -785 62 -187 168 -360 310 -501 174 -173 384 -286 634 -340
130 -28 372 -26 508 4 488 109 862 486 962 973 31 145 31 354 1 496 -107 514
-506 898 -1025 988 -76 13 -288 19 -336 10z m303 -775 c133 -50 249 -162 298
-287 31 -81 38 -231 14 -319 -32 -119 -125 -235 -240 -299 -268 -151 -608 -20
-711 274 -33 93 -33 229 0 323 57 162 204 293 368 328 69 15 205 5 271 -20z"/>
<path d="M4968 4503 c-1 -49 -1 -169 1 -268 l3 -180 106 -107 107 -108 -109
-109 -108 -109 0 -253 c0 -140 1 -260 1 -266 1 -10 61 -13 264 -13 l262 0 110
110 110 110 110 -110 110 -110 263 0 262 0 0 267 0 268 -107 107 -108 108 108
108 107 107 0 268 0 267 -263 0 -262 0 -110 -110 -110 -110 -110 110 -110 110
-263 0 -262 0 -2 -87z"/>
</g>
</svg>
