<?xml version="1.0" standalone="no"?>
<!DOCTYPE svg PUBLIC "-//W3C//DTD SVG 20010904//EN"
 "http://www.w3.org/TR/2001/REC-SVG-20010904/DTD/svg10.dtd">
<svg version="1.0" xmlns="http://www.w3.org/2000/svg"
 width="1277.000000pt" height="190.000000pt" viewBox="0 0 1277.000000 190.000000"
 preserveAspectRatio="xMidYMid meet">

<g transform="translate(0.000000,190.000000) scale(0.100000,-0.100000)"
fill="#000000" stroke="none">
<path d="M208 1893 c12 -2 30 -2 40 0 9 3 -1 5 -23 4 -22 0 -30 -2 -17 -4z"/>
<path d="M1262 1889 c2 -6 7 -10 12 -9 4 1 16 -8 25 -19 10 -12 28 -21 40 -21
11 0 21 -4 21 -10 0 -14 37 -12 43 3 4 9 8 9 15 -2 6 -9 24 -12 51 -9 22 2 41
0 41 -5 0 -4 4 -6 10 -2 5 3 18 -3 30 -15 21 -21 50 -27 50 -10 0 6 9 10 20
10 11 0 20 5 20 10 0 6 9 10 20 10 11 0 20 -4 20 -10 0 -5 10 -10 23 -9 l22 0
-22 11 c-18 9 -23 20 -23 50 l0 38 -211 0 c-146 0 -210 -3 -207 -11z"/>
<path d="M2003 1882 c-3 -14 -13 -22 -27 -23 -11 0 -15 -3 -8 -6 6 -2 12 -11
12 -19 0 -9 -4 -13 -9 -10 -5 3 -11 -7 -13 -22 -3 -15 -9 -35 -13 -44 -4 -11
-3 -18 4 -18 6 0 11 6 11 13 0 6 14 41 30 76 17 35 28 66 25 69 -3 4 -8 -4
-12 -16z"/>
<path d="M2050 1890 c0 -5 7 -10 15 -10 8 0 15 5 15 10 0 6 -7 10 -15 10 -8 0
-15 -4 -15 -10z"/>
<path d="M2170 1890 c0 -5 7 -10 15 -10 8 0 15 -4 15 -10 0 -5 -7 -10 -15 -10
-8 0 -15 -4 -15 -10 0 -5 16 -10 35 -10 19 0 35 -4 35 -10 0 -5 16 -10 35 -10
21 0 35 -5 35 -12 0 -9 3 -10 8 -2 4 6 15 10 25 8 10 -1 17 4 17 14 0 10 3 13
8 7 4 -5 14 -10 22 -11 12 -1 14 8 12 38 l-4 38 -114 0 c-69 0 -114 -4 -114
-10z"/>
<path d="M4197 1883 c4 -10 13 -29 20 -43 17 -33 16 -49 -2 -56 -10 -4 -12
-11 -6 -23 16 -29 17 -362 1 -391 -12 -23 -12 -24 3 -12 14 12 24 8 76 -33
l60 -47 -46 -69 c-36 -54 -49 -67 -59 -58 -7 6 -19 7 -25 3 -9 -5 -7 -11 7
-21 15 -11 16 -17 6 -33 -6 -10 -8 -22 -3 -25 10 -6 9 -24 -2 -42 -5 -7 -6
-13 -2 -13 3 0 0 -10 -6 -22 -21 -42 7 -4 81 107 40 61 98 141 129 180 61 77
188 219 199 222 4 2 19 -8 34 -20 24 -21 26 -26 14 -43 -8 -10 -12 -25 -9 -34
3 -8 -1 -7 -8 4 -9 15 -9 24 0 38 6 10 7 18 2 18 -5 0 -15 -15 -22 -32 -7 -18
-19 -40 -26 -48 -6 -8 -45 -55 -86 -105 -96 -117 -158 -204 -241 -344 -63
-104 -69 -118 -71 -175 -1 -33 -5 -70 -9 -81 -4 -11 17 27 47 83 30 57 59 108
64 113 5 5 29 -4 60 -24 l51 -32 -42 -75 c-23 -41 -57 -110 -76 -153 -30 -69
-36 -77 -61 -77 -32 0 -40 -16 -32 -63 4 -26 1 -38 -14 -48 -10 -8 -26 -26
-35 -40 -16 -26 -20 -27 -83 -22 -65 6 -65 6 -65 -21 0 -34 -27 -35 -40 -1 -5
14 -15 26 -22 26 -46 5 -70 4 -74 -3 -3 -4 0 -8 6 -8 6 0 8 -4 5 -10 -10 -16
-142 -13 -152 4 -6 9 -44 15 -132 19 -74 4 -127 11 -131 17 -5 8 -27 9 -67 5
-36 -5 -63 -3 -66 3 -4 5 -18 7 -33 4 -16 -3 -29 1 -35 9 -6 10 -10 5 -15 -19
-9 -43 -24 -51 -24 -13 0 28 -3 30 -56 41 -35 8 -78 9 -113 4 -62 -8 -177 -14
-262 -13 -42 0 -58 -4 -62 -15 -4 -9 -11 -16 -18 -16 -6 0 -9 7 -5 15 4 12 -6
15 -59 15 -51 0 -65 3 -65 15 0 8 -8 15 -17 15 -15 0 -16 -2 -3 -10 13 -8 12
-10 -2 -10 -22 0 -23 14 -2 34 8 9 13 16 10 16 -3 0 6 11 19 24 17 17 39 26
70 29 25 2 45 0 45 -4 0 -4 12 -4 28 0 15 5 34 7 43 6 32 -5 50 93 47 250 -4
184 16 235 74 191 24 -18 59 -98 48 -111 -4 -5 -11 -64 -15 -131 -7 -116 -2
-170 14 -160 4 3 17 -8 29 -23 l21 -29 102 4 c56 2 105 7 108 11 17 23 112 93
133 98 13 3 44 1 68 -5 25 -6 50 -12 57 -12 6 -1 9 -8 6 -16 -5 -12 6 -13 73
-8 43 4 95 6 114 6 19 0 69 -1 110 -2 87 -2 194 18 212 40 11 13 4 14 -57 8
-39 -3 -114 -9 -168 -12 l-98 -6 5 68 c8 99 16 443 9 419 -3 -11 -9 -24 -14
-30 -5 -5 -9 -32 -9 -60 0 -56 -23 -205 -34 -223 -11 -18 -33 -14 -40 6 -3 9
-10 24 -16 32 -5 8 -21 42 -35 75 -51 120 -79 173 -97 184 -17 11 -17 9 -1
-31 13 -34 154 -375 180 -435 4 -10 -10 -13 -49 -13 -55 0 -55 0 -74 41 l-18
41 -60 -6 c-32 -3 -76 -6 -97 -6 -37 0 -40 -2 -60 -50 l-21 -50 -49 0 c-27 0
-49 3 -49 8 0 4 48 111 106 237 138 300 134 289 85 237 -23 -24 -44 -56 -48
-70 -3 -15 -13 -37 -20 -49 -8 -12 -14 -24 -14 -28 1 -3 -10 -28 -24 -55 -14
-27 -25 -52 -25 -55 0 -9 -40 -45 -50 -45 -5 0 -10 9 -10 19 0 10 -7 22 -16
25 -9 3 -12 11 -8 18 5 7 7 27 5 45 -3 40 31 103 67 126 27 16 27 16 -34 17
l-62 0 -7 -220 -8 -220 -49 0 -49 0 6 177 c3 98 8 195 11 216 l4 38 -70 -7
-71 -7 3 49 3 49 60 6 c33 4 110 10 170 14 l110 7 0 27 c0 23 -3 27 -24 23
l-24 -5 6 82 c5 80 5 81 -19 81 -19 0 -24 5 -24 25 0 24 3 25 54 25 57 0 84
15 44 25 -13 3 -41 3 -63 0 -22 -3 -71 -7 -110 -9 -38 -2 -86 -7 -105 -11 -19
-4 -51 -3 -70 3 -29 7 -43 5 -82 -14 -63 -32 -88 -69 -88 -133 0 -42 5 -56 31
-86 18 -20 30 -37 28 -39 -2 -2 -13 -8 -24 -15 -19 -11 -19 -11 5 -10 75 4 72
8 66 -88 -3 -49 -9 -168 -12 -266 l-6 -177 -50 0 -50 0 6 108 c10 193 16 407
10 395 -8 -19 -66 -15 -91 6 -23 19 -32 38 -13 26 6 -3 10 -4 10 -1 0 3 -12
12 -27 20 -18 10 -22 15 -12 16 31 0 41 49 26 116 -8 33 -21 70 -28 82 -20 33
-65 42 -124 24 -40 -11 -59 -12 -95 -3 -45 11 -282 7 -302 -5 -5 -3 -7 -13 -3
-21 4 -13 -1 -15 -32 -10 -21 4 -33 3 -26 -1 8 -5 5 -14 -9 -32 -14 -16 -22
-21 -25 -12 -8 21 -40 14 -47 -10 -3 -13 -6 -47 -6 -75 l0 -53 45 0 c38 0 45
-3 45 -19 0 -16 -10 -21 -55 -26 -74 -10 -89 -3 -81 36 3 18 6 62 6 100 l0 68
33 4 c25 3 22 4 -15 5 -41 2 -47 -1 -50 -20 -2 -13 -7 -22 -13 -21 -39 7 -17
-125 29 -176 17 -19 25 -31 18 -27 -6 4 -12 3 -12 -2 0 -6 -29 -9 -65 -9 -36
1 -65 5 -65 10 0 4 -27 5 -60 3 -63 -5 -118 -35 -119 -66 -1 -9 -5 -20 -10
-25 -11 -12 -19 -91 -27 -291 -7 -144 0 -240 15 -216 4 7 11 0 19 -18 7 -16
21 -31 30 -33 9 -2 -14 -7 -53 -12 -38 -4 -81 -12 -95 -17 -14 -6 -34 -11 -45
-12 -11 -2 -35 -6 -53 -10 -18 -4 -54 -3 -80 3 -77 18 -363 39 -587 44 l-90 2
-3 33 c-2 24 1 32 12 32 9 0 16 6 16 13 0 7 3 8 8 2 11 -15 139 -17 205 -4 49
10 57 15 57 35 0 39 -11 53 -46 60 -20 4 -34 12 -34 20 0 8 -13 17 -28 20 -18
4 -32 16 -41 35 -11 25 -18 30 -44 27 -26 -3 -33 -9 -46 -49 -9 -26 -22 -54
-29 -62 -8 -9 -11 -21 -7 -27 3 -5 -1 -10 -10 -10 -9 0 -13 -4 -10 -10 3 -5
-1 -10 -9 -10 -9 0 -16 4 -16 8 0 5 -11 14 -25 20 -23 11 -29 9 -50 -15 -13
-16 -25 -33 -25 -40 -1 -37 -96 -63 -174 -46 -36 8 -40 12 -53 58 -8 30 -25
59 -41 72 -28 24 -52 30 -52 13 0 -5 -6 -10 -14 -10 -8 0 -18 -10 -22 -22 -6
-20 -11 -13 -31 42 -14 36 -31 88 -38 115 -12 45 -14 11 -14 -312 l-1 -363
2338 0 2338 0 24 47 c13 25 23 59 24 75 1 15 5 28 10 28 5 0 3 7 -4 15 -19 23
-39 132 -27 144 18 18 75 13 98 -10 50 -50 71 -151 49 -229 -20 -69 -18 -70
161 -69 132 2 157 4 148 15 -6 8 -15 12 -19 9 -5 -3 -12 0 -16 6 -4 7 -3 9 3
6 6 -4 13 -1 16 7 3 8 30 33 59 55 43 32 60 39 84 35 28 -5 28 -4 9 10 -20 15
-19 16 14 48 30 29 32 30 18 7 -9 -15 -13 -35 -11 -46 3 -11 -2 -38 -11 -59
-9 -21 -21 -51 -25 -66 l-9 -28 595 0 c327 0 594 4 594 8 0 4 -5 13 -12 20 -9
9 -9 12 -1 12 7 0 15 -9 18 -20 5 -16 15 -20 51 -20 42 0 45 1 38 23 -3 12
-13 35 -21 50 -7 15 -11 32 -8 37 6 9 110 44 136 45 9 0 45 30 81 65 47 47 79
71 120 86 l55 20 31 -69 c21 -45 36 -66 43 -61 7 4 9 3 5 -4 -11 -18 14 -61
33 -54 14 5 14 4 2 -11 -9 -11 -10 -17 -2 -17 6 0 11 -6 11 -13 0 -7 9 -22 19
-34 10 -11 21 -29 23 -39 3 -17 15 -19 131 -22 70 -1 127 1 127 5 0 5 -7 19
-16 31 -8 12 -12 22 -7 22 4 0 16 -14 25 -30 17 -30 18 -30 103 -30 82 0 85 1
75 19 -5 11 -10 23 -10 28 1 4 8 -4 16 -19 l15 -28 269 0 c209 0 270 3 270 13
0 6 8 21 17 32 l16 20 -8 -20 c-4 -11 -9 -26 -12 -32 -4 -10 174 -13 871 -13
482 0 876 2 876 5 0 2 -21 36 -46 75 -25 39 -69 119 -98 179 -38 80 -56 107
-69 105 -9 -1 -17 2 -17 7 0 5 -41 9 -91 9 -83 0 -98 -3 -152 -31 -56 -28 -69
-31 -136 -27 -62 3 -76 7 -88 25 -13 20 -21 22 -78 16 -55 -5 -66 -3 -86 16
-30 28 -69 28 -69 1 0 -13 -7 -20 -18 -20 -31 0 -124 31 -139 46 -9 9 -36 14
-73 14 -54 0 -59 -2 -84 -34 -14 -19 -26 -39 -26 -44 0 -5 -10 -7 -23 -5 -34
7 -97 141 -97 209 0 27 -5 88 -11 134 -6 47 -12 138 -13 202 -1 134 8 115
-138 284 -104 121 -232 238 -393 358 -63 48 -115 93 -115 100 0 8 -14 44 -31
81 -38 81 -30 99 28 65 206 -124 385 -268 568 -455 39 -39 67 -67 63 -61 -11
15 -10 50 3 63 7 7 -1 21 -26 48 l-37 37 33 34 c31 32 32 35 16 52 -20 21 -22
52 -5 52 17 0 -35 51 -139 137 -51 42 -94 82 -97 90 -3 8 -2 12 3 9 7 -5 52
42 97 103 10 13 15 12 38 -6 15 -12 35 -19 46 -16 11 3 20 0 20 -6 0 -6 -8 -8
-17 -4 -16 6 -16 5 -4 -11 8 -9 28 -27 45 -38 l31 -22 -22 25 c-15 17 -23 38
-23 62 0 36 -1 37 -36 37 -25 0 -33 -4 -28 -12 6 -10 4 -10 -7 0 -7 6 -27 12
-44 12 -25 -1 -38 -11 -75 -60 -30 -40 -50 -57 -60 -53 -8 3 -20 6 -27 6 -7 0
-10 4 -8 8 3 4 -18 21 -45 39 -28 18 -50 38 -50 46 0 11 -17 14 -72 14 -39 0
-69 -2 -67 -4 11 -10 262 -176 266 -176 2 0 1 4 -2 10 -3 6 1 7 10 3 11 -4 13
-8 6 -13 -18 -11 23 -42 45 -34 13 4 15 3 6 -3 -9 -7 8 -27 65 -75 83 -70 149
-136 142 -140 -2 -2 -16 -14 -31 -27 l-27 -24 -83 75 c-174 155 -317 258 -521
375 l-59 33 -789 0 -789 0 11 -26 c5 -15 8 -29 5 -31 -2 -2 -8 10 -14 26 l-11
31 -577 0 c-510 0 -575 -2 -564 -15 7 -8 10 -24 7 -35 -4 -17 -2 -20 14 -15
11 4 19 2 19 -4 0 -20 -47 -11 -74 14 -31 29 -35 21 -4 -12 16 -17 19 -26 11
-34 -12 -12 -37 -3 -28 11 3 4 -2 10 -10 14 -11 4 -15 -2 -15 -23 0 -23 -6
-31 -32 -41 -48 -17 -63 -26 -63 -37 0 -5 -27 -34 -60 -63 -79 -71 -181 -177
-262 -272 -36 -43 -69 -78 -72 -78 -11 0 -110 85 -110 95 -2 34 294 341 444
462 l40 32 -277 1 c-260 0 -277 -1 -271 -17z m3433 -3 c0 -5 -5 -10 -11 -10
-5 0 -7 5 -4 10 3 6 8 10 11 10 2 0 4 -4 4 -10z m556 -67 c-14 -13 -26 -19
-26 -13 0 6 7 13 15 16 8 3 17 16 21 27 5 15 9 17 12 8 2 -7 -7 -24 -22 -38z
m-646 33 c0 -2 -7 -7 -16 -10 -8 -3 -12 -2 -9 4 6 10 25 14 25 6z m-1387 -51
c-3 -9 -8 -14 -10 -11 -3 3 -2 9 2 15 9 16 15 13 8 -4z m1327 -19 c25 8 46 14
46 14 1 0 4 -16 6 -35 2 -19 0 -35 -5 -35 -6 0 -7 -22 -3 -52 5 -37 3 -48 -4
-38 -6 9 -10 10 -10 3 0 -6 4 -14 9 -18 6 -3 6 -17 1 -34 -4 -15 -6 -41 -3
-57 3 -21 2 -25 -5 -15 -8 11 -12 -5 -18 -57 -4 -42 -11 -72 -18 -72 -6 0 -3
-5 7 -11 14 -8 22 -8 30 0 6 6 18 11 27 10 10 0 11 -2 3 -6 -7 -2 -13 -8 -13
-13 0 -9 67 -25 93 -22 11 1 15 -2 11 -9 -8 -14 31 -3 63 17 20 12 22 12 16
-1 -4 -13 0 -15 23 -10 l29 5 -28 -11 c-18 -7 -25 -15 -20 -22 5 -7 10 -23 11
-37 3 -23 -3 -28 -50 -44 -29 -10 -66 -27 -81 -38 -15 -11 -37 -20 -47 -21
-25 -2 -26 -14 -2 -19 9 -2 -36 -21 -101 -41 -64 -21 -122 -35 -127 -32 -6 4
-9 1 -8 -6 2 -6 -3 -14 -11 -17 -8 -3 -11 0 -7 7 14 22 -5 31 -35 16 -16 -9
-29 -13 -29 -10 0 3 -10 1 -21 -6 -31 -16 -86 -14 -115 6 -22 14 -28 15 -35 4
-4 -7 -11 -10 -15 -6 -4 3 -1 14 7 24 9 11 10 14 2 9 -9 -5 -13 2 -13 24 0 19
-4 29 -10 25 -7 -4 -8 3 -4 21 5 19 4 25 -4 20 -8 -5 -10 -2 -6 8 3 9 10 14
14 11 4 -3 10 1 13 8 3 8 -3 14 -14 14 -12 1 -19 -5 -19 -15 -1 -15 -2 -15
-11 1 -6 10 -9 27 -6 37 2 10 0 24 -5 31 -7 10 -8 9 -4 -5 5 -16 4 -17 -9 -6
-8 7 -21 10 -29 7 -12 -5 -11 1 4 28 10 18 16 42 13 53 -3 13 1 22 11 25 13 4
13 5 -1 3 -10 -1 -19 -11 -21 -24 -2 -12 -7 -22 -12 -22 -11 0 -18 47 -9 62 7
10 9 10 9 -2 1 -8 9 1 20 20 22 40 27 101 8 96 -42 -13 -69 -16 -63 -6 3 5 2
10 -3 10 -15 0 -9 33 10 52 10 10 25 18 33 18 8 0 15 5 15 11 0 8 4 8 13 1 9
-8 20 -7 40 3 15 8 27 12 27 10 0 -2 13 1 29 6 22 8 28 15 23 27 -5 14 -4 15
10 2 8 -8 13 -21 10 -29 -3 -9 0 -12 9 -9 8 3 13 14 11 25 -2 16 4 22 33 27
24 5 35 12 35 24 0 11 3 13 8 5 5 -8 16 -7 42 4 19 9 41 15 48 14 7 -1 12 2
11 6 -4 21 3 32 21 38 11 4 18 10 15 15 -7 12 20 20 46 13 17 -5 20 -3 15 8
-4 8 1 5 11 -7 18 -20 22 -20 63 -8z m187 -8 c-3 -8 -6 -5 -6 6 -1 11 2 17 5
13 3 -3 4 -12 1 -19z m427 0 c-3 -4 -9 -8 -15 -8 -5 0 -9 4 -9 8 0 5 7 9 15 9
8 0 12 -4 9 -9z m-764 -2 c0 -2 -9 -6 -20 -9 -11 -3 -18 -1 -14 4 5 9 34 13
34 5z m-2482 -82 c7 -25 7 -31 -3 -28 -7 3 -15 -1 -18 -9 -7 -19 2 -57 14 -57
18 0 8 -18 -12 -23 -19 -5 -21 -3 -15 25 3 18 3 29 0 25 -13 -12 -33 27 -22
40 7 9 7 17 -2 28 -10 12 -9 15 4 15 10 0 14 -4 11 -10 -3 -5 -1 -10 4 -10 13
0 13 2 1 34 -9 24 -8 25 9 14 10 -6 23 -26 29 -44z m1339 24 c-3 -8 -6 -5 -6
6 -1 11 2 17 5 13 3 -3 4 -12 1 -19z m1970 0 c-3 -8 -6 -5 -6 6 -1 11 2 17 5
13 3 -3 4 -12 1 -19z m-2636 -15 c13 -17 13 -17 -6 -3 -11 8 -22 16 -24 17 -2
2 0 3 6 3 6 0 17 -8 24 -17z m524 -23 c-10 -11 -20 -18 -23 -15 -7 6 18 35 31
35 5 0 2 -9 -8 -20z m158 -7 c1 -12 9 -28 15 -36 8 -9 9 -18 4 -21 -10 -6 -20
18 -29 64 -2 13 -2 22 1 19 3 -3 7 -15 9 -26z m887 17 c-8 -5 -19 -10 -25 -10
-5 0 -3 5 5 10 8 5 20 10 25 10 6 0 3 -5 -5 -10z m-378 -66 c-10 -7 -13 -22
-10 -47 2 -20 0 -37 -4 -37 -12 0 -10 78 2 85 6 3 10 16 11 28 0 21 1 21 8 2
5 -13 3 -24 -7 -31z m-1912 -19 c0 -3 -7 -5 -15 -5 -8 0 -15 7 -15 16 0 8 -4
12 -10 9 -11 -7 -14 8 -3 18 6 7 43 -26 43 -38z m474 16 c3 -4 -6 -6 -19 -3
-14 2 -25 6 -25 8 0 8 39 4 44 -5z m-544 -13 c0 -4 -4 -8 -9 -8 -6 0 -12 4
-15 8 -3 5 1 9 9 9 8 0 15 -4 15 -9z m2147 6 c-3 -3 -12 -4 -19 -1 -8 3 -5 6
6 6 11 1 17 -2 13 -5z m-111 -51 c-10 -10 -19 5 -10 18 6 11 8 11 12 0 2 -7 1
-15 -2 -18z m978 11 c3 -8 2 -12 -4 -9 -6 3 -10 10 -10 16 0 14 7 11 14 -7z
m-3026 -25 c4 -24 3 -24 -13 -4 -14 17 -16 17 -11 3 3 -11 0 -18 -9 -18 -23 0
-29 22 -9 37 24 18 38 12 42 -18z m25 0 c-9 -9 -12 -7 -10 9 1 14 5 18 11 12
7 -7 6 -14 -1 -21z m962 4 c15 -12 16 -14 3 -10 -12 4 -15 2 -11 -8 4 -11 10
-12 23 -5 27 15 34 12 19 -7 -12 -15 -12 -16 3 -11 10 4 19 1 22 -8 4 -10 2
-12 -6 -8 -8 5 -9 2 -4 -12 5 -10 11 -28 14 -39 3 -11 10 -23 15 -27 16 -10
18 -40 2 -35 -9 4 -11 -1 -7 -16 3 -12 7 -16 10 -9 3 9 8 8 19 -3 8 -8 23 -15
34 -15 11 0 18 -4 14 -10 -3 -5 -13 -7 -23 -4 -12 4 -11 2 3 -7 11 -7 23 -16
26 -21 3 -4 36 -24 75 -44 38 -20 81 -43 96 -51 27 -14 45 -43 27 -43 -6 0 -7
-5 -3 -11 4 -7 8 -19 9 -28 1 -9 6 -26 10 -39 7 -21 8 -21 21 -5 7 10 14 39
14 66 0 37 4 47 17 47 14 0 14 2 -2 20 -11 12 -13 20 -6 20 7 0 9 5 5 12 -5 7
-2 9 7 6 10 -4 15 5 16 33 3 43 26 95 45 102 10 3 9 9 -5 24 -9 11 -14 23 -10
26 12 12 22 7 17 -8 -4 -9 -1 -15 7 -15 8 0 28 -28 44 -62 28 -59 30 -71 33
-204 3 -112 1 -148 -11 -171 -15 -27 -14 -30 5 -42 19 -12 20 -11 14 13 -4 15
-2 26 4 26 5 0 10 -5 10 -10 0 -6 12 -22 27 -35 20 -17 32 -21 45 -14 28 15
37 10 53 -28 14 -34 14 -38 -5 -58 -11 -12 -20 -33 -20 -48 0 -24 -33 -67 -51
-67 -4 0 -11 -21 -14 -47 -9 -61 -36 -123 -80 -184 -19 -27 -35 -54 -35 -59 0
-6 -4 -10 -10 -10 -5 0 -10 -7 -10 -15 0 -9 -6 -12 -15 -9 -8 4 -15 2 -15 -2
0 -5 -14 -10 -32 -11 -17 -1 -36 -7 -42 -13 -5 -5 -21 -10 -33 -10 -16 0 -52
-27 -107 -79 -95 -89 -130 -105 -219 -99 -55 4 -63 8 -93 43 -19 20 -41 58
-50 82 -15 39 -25 48 -86 79 -37 19 -70 33 -71 32 -2 -2 -17 12 -32 31 -27 32
-29 32 -37 12 -8 -22 -29 -25 -213 -26 -33 0 -66 -4 -72 -8 -8 -5 -13 -4 -13
2 0 6 -7 11 -15 11 -8 0 -15 -4 -15 -9 0 -13 -86 -18 -97 -6 -5 6 -16 25 -23
43 -8 17 -20 32 -26 32 -6 0 -14 23 -17 52 -3 29 -13 109 -21 178 -9 69 -15
139 -14 157 2 28 4 30 21 21 31 -16 33 1 4 28 -15 14 -27 33 -28 42 0 9 -2 42
-3 72 -4 58 15 111 58 165 l22 27 39 -76 c38 -76 49 -87 58 -63 4 7 6 6 6 -5
1 -9 -7 -19 -16 -22 -10 -3 -6 -4 8 -2 36 4 52 -10 83 -72 24 -48 46 -73 32
-36 -4 9 -2 13 5 8 6 -3 9 -19 5 -35 -4 -22 0 -34 16 -49 12 -11 29 -20 38
-19 28 3 35 -1 20 -11 -12 -9 -9 -15 20 -40 29 -25 41 -29 70 -25 32 5 33 4
14 -7 -12 -7 -19 -19 -17 -25 8 -22 -20 -14 -49 14 -18 18 -28 22 -28 12 0
-19 15 -41 25 -37 5 1 21 -33 36 -77 15 -44 31 -80 36 -79 35 4 93 30 93 42 0
12 3 12 15 2 8 -7 15 -24 15 -39 0 -28 25 -71 41 -71 6 0 4 10 -3 22 -12 23
-20 71 -37 234 -10 102 -24 139 -48 129 -22 -8 -104 27 -99 42 3 6 -3 18 -13
27 -14 13 -17 27 -13 66 3 32 0 55 -8 65 -7 8 -10 22 -6 30 3 8 2 15 -2 15 -4
0 -12 11 -18 23 -8 18 -7 26 3 35 7 7 13 29 13 48 0 21 6 37 15 40 8 4 12 10
9 15 -3 5 0 9 5 9 6 0 11 5 11 11 0 15 26 39 34 32 3 -4 6 -1 6 6 0 9 8 11 21
8 17 -5 18 -3 7 11 -10 12 -10 14 0 8 6 -4 12 -2 12 4 0 8 6 8 21 -1 19 -10
20 -9 14 13 -7 22 -7 22 12 6 24 -22 40 -24 23 -3 -18 21 -3 57 21 50 15 -5
17 -3 12 11 -5 14 -3 16 11 11 24 -9 57 10 49 28 -4 13 -1 14 20 6 20 -8 27
-6 31 5 4 10 2 12 -6 8 -7 -4 -8 -3 -4 4 4 7 16 12 28 12 18 0 19 -2 7 -17 -7
-10 -2 -8 12 5 17 15 32 20 44 16 13 -5 16 -4 11 4 -10 17 5 14 29 -5z m505
-13 c6 -11 8 -20 6 -20 -3 0 -10 9 -16 20 -6 11 -8 20 -6 20 3 0 10 -9 16 -20z
m564 -31 c-2 -4 5 -14 16 -24 11 -10 20 -23 20 -28 0 -24 -42 37 -46 66 -3 25
-2 27 5 12 5 -11 7 -23 5 -26z m-494 -49 c6 -25 14 -63 16 -85 l5 -40 -22 39
c-14 27 -21 59 -23 103 -1 65 2 63 24 -17z m-95 4 c-6 -9 -26 -22 -45 -30 -30
-12 -32 -12 -17 0 14 10 15 15 5 19 -7 3 -1 6 15 6 21 1 27 6 27 23 0 17 3 19
12 10 9 -9 9 -17 3 -28z m1375 19 c12 10 12 9 2 -4 -15 -21 -4 -57 21 -65 18
-6 19 -7 3 -16 -9 -5 -13 -15 -10 -21 4 -7 3 -8 -2 -4 -4 4 -18 36 -31 70 -12
34 -16 54 -9 45 10 -14 15 -15 26 -5z m-1322 -59 c-4 -3 -12 5 -18 18 -12 22
-12 22 6 6 10 -10 15 -20 12 -24z m1672 26 c10 -6 2 -7 -25 -3 -49 7 -58 13
-19 13 16 0 36 -5 44 -10z m-3174 -9 c-3 -5 1 -14 9 -21 8 -7 15 -17 15 -23 0
-5 -9 -2 -20 8 -21 19 -27 45 -9 45 5 0 8 -4 5 -9z m2071 -7 c-3 -3 -12 -4
-19 -1 -8 3 -5 6 6 6 11 1 17 -2 13 -5z m884 -7 c-1 -12 -15 -9 -19 4 -3 6 1
10 8 8 6 -3 11 -8 11 -12z m-1870 -14 c13 -16 12 -17 -3 -4 -17 13 -22 21 -14
21 2 0 10 -8 17 -17z m1819 7 c-20 -13 -33 -13 -25 0 3 6 14 10 23 10 15 0 15
-2 2 -10z m300 -13 c40 2 103 -30 118 -61 6 -11 14 -47 17 -78 4 -32 11 -58
16 -58 6 0 32 -14 59 -32 48 -32 100 -103 80 -110 -12 -4 -13 -22 -4 -86 4
-28 1 -53 -9 -75 -8 -17 -17 -46 -20 -62 -5 -30 -5 -30 31 -27 78 6 140 -59
185 -192 21 -61 22 -100 2 -119 -8 -8 -11 -18 -7 -22 4 -4 -2 -2 -13 5 -16 9
-20 21 -18 49 6 67 3 94 -16 135 -28 63 -62 89 -110 84 -35 -3 -41 -1 -46 19
-7 29 -22 30 -30 2 -5 -14 -2 -25 6 -30 12 -7 7 -13 -5 -6 -3 1 -15 -14 -28
-33 -47 -69 -99 -76 -160 -21 -28 25 -32 34 -31 77 0 28 14 88 33 139 25 71
30 99 25 133 -4 27 -11 42 -21 42 -8 0 -14 5 -14 10 0 6 -12 10 -26 10 -28 0
-81 51 -91 88 -7 30 4 82 22 102 13 15 13 21 1 51 -7 19 -17 45 -21 57 -6 22
-5 23 17 16 12 -5 39 -8 58 -7z m-230 -18 c-7 -11 -14 -18 -17 -15 -3 3 0 12
7 21 18 21 23 19 10 -6z m-1590 7 c0 -2 -8 -10 -17 -17 -16 -13 -17 -12 -4 4
13 16 21 21 21 13z m50 -11 c-7 -9 -15 -13 -17 -11 -7 7 7 26 19 26 6 0 6 -6
-2 -15z m1650 -23 c0 -15 -2 -15 -10 -2 -13 20 -13 33 0 25 6 -3 10 -14 10
-23z m-3153 -7 c0 -8 -4 -12 -9 -9 -5 3 -6 10 -3 15 9 13 12 11 12 -6z m-1577
-24 c0 -16 -9 -21 -45 -27 -59 -8 -62 -34 -5 -34 33 0 40 -4 40 -19 0 -21 -19
-31 -56 -31 -15 0 -24 -6 -24 -15 0 -11 11 -15 40 -15 32 0 40 -4 40 -19 0
-20 -34 -31 -96 -31 l-34 0 0 89 c0 122 -1 121 76 121 57 0 64 -2 64 -19z
m-202 -7 c34 -23 12 -46 -37 -38 -44 7 -69 -10 -77 -53 -5 -26 -2 -34 19 -48
29 -18 67 -12 67 11 0 8 -9 14 -20 14 -13 0 -20 7 -20 19 0 21 19 31 61 31 26
0 29 -3 29 -32 0 -72 -25 -98 -91 -98 -43 0 -69 17 -84 54 -23 54 5 118 60
142 40 18 66 17 93 -2z m1787 -4 c22 -11 47 -20 57 -20 30 0 29 -17 -4 -51
-62 -67 -161 -195 -225 -291 -35 -54 -66 -98 -68 -98 -2 0 -26 14 -54 31 l-50
31 31 49 c52 85 241 340 273 369 1 0 18 -9 40 -20z m-2110 -36 c0 -14 -7 -19
-29 -19 -40 0 -43 -20 -6 -35 38 -16 53 -41 44 -75 -13 -52 -100 -70 -124 -25
-14 27 -30 25 -30 -3 0 -17 -11 -27 -47 -43 -48 -21 -82 -16 -66 10 8 12 11
27 15 70 1 16 10 34 20 40 13 8 18 23 18 53 0 39 2 43 25 43 29 0 34 -28 11
-72 -13 -24 -13 -28 -1 -28 8 0 21 -10 29 -21 10 -14 21 -19 32 -15 9 3 23 1
30 -5 14 -12 44 -6 44 8 0 5 -16 17 -35 27 -29 16 -35 25 -35 51 0 31 19 57
50 67 24 8 55 -8 55 -28z m3754 -44 l-7 -55 1 52 c0 29 -2 56 -6 59 -4 4 -7
11 -7 16 0 5 6 3 13 -4 10 -9 11 -28 6 -68z m-3989 35 c0 -20 -5 -25 -25 -25
-25 0 -25 -1 -25 -80 0 -75 -1 -80 -22 -80 -12 0 -18 -3 -14 -7 4 -5 13 -8 19
-8 28 0 16 -42 -21 -78 -34 -34 -42 -37 -65 -28 -15 6 -27 17 -27 25 0 7 -3
28 -6 45 -6 28 -4 31 20 31 15 0 29 7 33 16 6 15 8 15 20 -2 11 -15 13 -5 13
75 0 88 -1 93 -20 88 -23 -6 -33 5 -24 27 5 14 33 20 112 24 28 2 32 -1 32
-23z m-170 -10 c0 -23 -4 -25 -45 -25 -39 0 -45 -3 -45 -21 0 -17 5 -20 33
-18 33 3 37 0 37 -26 0 -10 -11 -15 -35 -15 -28 0 -35 -4 -35 -20 0 -18 4 -20
40 -14 38 6 40 5 40 -20 0 -22 -5 -26 -27 -26 -16 0 -45 -3 -65 -6 l-38 -7 0
94 c0 52 4 99 8 106 4 6 28 13 52 16 25 2 53 4 63 5 12 1 17 -5 17 -23z m4724
-20 c7 -34 -7 -15 -19 25 -5 16 -4 22 3 15 5 -5 12 -23 16 -40z m976 25 c0
-13 -11 -13 -30 0 -12 8 -11 10 8 10 12 0 22 -4 22 -10z m-3014 -7 c-11 -11
-66 -12 -66 -2 0 5 17 9 37 9 20 0 33 -3 29 -7z m13 -39 c-6 -8 -19 -14 -28
-13 -11 0 -12 2 -3 6 10 4 9 8 -4 18 -15 10 -13 11 15 7 25 -3 29 -7 20 -18z
m2896 6 c-3 -5 -12 -10 -18 -10 -7 0 -6 4 3 10 19 12 23 12 15 0z m-846 -52
c6 -18 7 -28 2 -23 -10 12 -25 55 -18 55 3 0 10 -15 16 -32z m736 22 c3 -5 1
-10 -4 -10 -6 0 -11 5 -11 10 0 6 2 10 4 10 3 0 8 -4 11 -10z m-2805 -14 c0
-11 -19 -15 -25 -6 -3 5 1 10 9 10 9 0 16 -2 16 -4z m1525 -60 c15 -28 27 -35
72 -45 29 -7 53 -17 53 -22 0 -5 21 -24 46 -42 l46 -32 -29 -7 c-21 -5 -16 -6
19 -5 27 1 49 -1 50 -5 2 -4 19 -11 38 -14 l35 -7 -19 21 c-11 12 -26 22 -35
22 -9 0 -31 9 -49 20 -18 11 -39 20 -46 20 -7 0 -20 7 -27 16 -12 15 -11 16
11 10 41 -12 130 -58 200 -102 36 -23 85 -51 109 -64 l44 -22 -7 44 c-21 133
-22 127 15 142 19 8 38 12 42 9 5 -3 7 3 4 13 -16 56 -15 65 2 29 11 -22 39
-56 63 -76 50 -42 88 -112 93 -172 4 -52 -17 -138 -45 -177 -22 -31 -87 -76
-97 -66 -3 3 2 9 12 12 15 6 15 8 -6 20 -13 7 -30 13 -38 14 -8 0 -25 10 -38
22 -17 16 -23 33 -23 67 -1 37 -3 42 -11 28 -15 -25 -24 -117 -11 -117 10 0
26 -37 23 -54 -3 -17 21 -78 60 -147 21 -40 39 -74 39 -77 0 -8 -40 46 -40 55
0 4 -9 19 -19 32 l-19 25 5 -26 c4 -23 -2 -28 -72 -61 -42 -21 -85 -37 -96
-37 -19 0 -43 -33 -31 -44 3 -4 0 -5 -8 -2 -9 4 -36 -14 -67 -44 -47 -44 -56
-48 -78 -40 -14 5 -25 12 -25 14 0 3 8 2 18 -1 15 -6 15 -5 3 10 -7 9 -26 17
-41 17 -27 0 -28 -2 -25 -37 3 -36 -29 -112 -43 -99 -2 3 0 11 6 19 6 7 15 25
21 39 8 21 7 28 -5 32 -8 3 -13 2 -10 -3 3 -4 -1 -17 -9 -27 -14 -18 -15 -18
-11 6 9 54 28 78 85 104 31 14 56 29 56 33 0 4 12 8 26 8 15 0 32 6 40 14 11
12 8 13 -22 9 -19 -4 -57 -16 -83 -28 -26 -13 -49 -20 -53 -17 -8 9 24 58 56
84 17 15 21 23 11 23 -23 0 -34 -11 -62 -60 -14 -25 -36 -54 -48 -65 l-23 -20
7 75 c3 41 9 89 12 107 4 24 1 34 -13 41 -10 5 -24 7 -30 5 -27 -10 0 99 35
140 10 11 11 17 4 17 -7 0 -12 13 -12 30 0 21 9 36 35 57 19 15 35 32 35 37 0
5 -7 3 -15 -4 -11 -9 -15 -9 -15 -1 0 17 39 91 48 91 4 0 22 9 41 21 26 16 31
23 21 29 -9 6 -19 3 -28 -8 -7 -9 -11 -11 -7 -4 4 8 -3 12 -22 12 l-28 0 25
21 25 21 -27 -6 c-22 -5 -25 -3 -21 14 3 11 9 23 14 26 5 3 2 12 -6 21 -13 12
-18 13 -31 3 -12 -11 -13 -10 -8 4 3 9 11 16 17 16 6 0 8 2 5 5 -3 3 -17 1
-30 -4 -23 -9 -29 -5 -57 29 -35 44 -62 101 -38 82 8 -7 22 -27 32 -46z
m-1285 8 c0 -9 14 -43 31 -75 18 -33 29 -62 26 -65 -3 -3 -19 20 -35 52 -37
75 -46 104 -33 104 6 0 11 -7 11 -16z m2554 -29 c9 -13 16 -31 16 -40 0 -20
-60 -46 -88 -38 -14 3 -24 0 -28 -10 -3 -9 -22 -21 -42 -28 -31 -10 -37 -9
-49 7 -7 10 -13 24 -13 31 0 7 -7 13 -15 13 -18 0 -17 3 -5 -40 11 -39 0 -53
-37 -44 -16 4 -25 1 -29 -10 -12 -32 -24 -15 -24 34 0 28 4 50 9 50 5 0 21
-16 36 -36 15 -19 29 -33 32 -30 9 8 -18 66 -27 61 -5 -3 -11 -1 -15 5 -6 9 9
18 60 34 17 5 23 0 34 -30 9 -25 17 -34 28 -30 8 3 19 6 24 6 5 0 9 23 9 52
l0 52 40 -39 c44 -43 46 -43 25 8 -11 27 -12 37 -2 40 27 11 45 6 61 -18z
m-5035 -75 c22 -11 43 -25 47 -31 3 -6 -9 -27 -28 -46 l-35 -34 -37 22 c-49
28 -122 21 -177 -17 -56 -38 -94 -119 -84 -179 13 -87 91 -145 179 -131 67 11
86 29 86 81 l0 45 -56 0 c-48 0 -55 -2 -44 -15 17 -20 4 -35 -32 -35 -79 0
-106 97 -47 165 21 24 39 35 53 33 19 -3 21 -9 20 -68 -1 -36 1 -48 3 -28 5
42 5 42 137 52 l68 5 -7 -122 c-8 -139 -10 -144 -94 -184 -157 -75 -328 3
-361 163 -29 139 67 292 214 340 53 18 145 10 195 -16z m-591 -11 c1 -8 -7
-28 -19 -43 -17 -22 -27 -26 -48 -21 -28 7 -84 55 -75 64 6 6 100 19 124 17 8
-1 16 -8 18 -17z m115 -81 c-3 -51 -8 -172 -11 -268 l-7 -175 -49 -3 -48 -3 6
173 c4 95 9 214 12 265 l6 92 36 4 c21 2 42 4 49 5 8 2 10 -23 6 -90z m5651
83 c3 -5 -3 -11 -14 -14 -28 -7 -36 -35 -16 -55 13 -13 18 -14 28 -4 10 10 10
15 -2 22 -13 9 -13 11 0 20 18 11 36 -19 27 -44 -8 -19 -58 -21 -76 -3 -11 10
-12 8 -6 -10 7 -26 -2 -29 -29 -8 -29 22 -37 18 -26 -10 6 -17 6 -25 -1 -25
-6 0 -14 10 -17 23 -6 20 -7 20 -12 -8 -7 -40 -50 -57 -80 -30 -24 22 -25 42
-3 67 19 21 53 24 72 6 11 -11 12 -9 6 11 l-7 24 36 -21 c40 -24 40 -24 26 12
-12 33 7 36 20 4 l9 -23 0 22 c1 12 11 29 23 37 26 18 35 20 42 7z m-1354 -16
c7 -9 8 -15 2 -15 -5 0 -12 7 -16 15 -3 8 -4 15 -2 15 2 0 9 -7 16 -15z m874
-22 c4 -16 9 -36 12 -45 3 -10 1 -18 -5 -18 -6 0 -11 7 -11 15 0 8 -4 15 -10
15 -5 0 -10 -7 -10 -15 0 -13 -4 -14 -20 -5 -19 10 -20 9 -14 -17 9 -40 -9
-18 -30 35 l-17 44 30 -21 c37 -27 38 -27 46 9 8 37 21 39 29 3z m-5459 -9
c81 -34 130 -117 130 -219 0 -85 -26 -144 -88 -205 -56 -54 -111 -78 -194 -85
-37 -3 -85 -8 -107 -11 l-38 -5 6 183 c4 101 9 222 12 270 l6 87 82 3 c97 4
151 -1 191 -18z m5260 16 c-3 -5 -11 -10 -16 -10 -6 0 -7 5 -4 10 3 6 11 10
16 10 6 0 7 -4 4 -10z m421 -94 c-7 -43 -6 -44 16 -39 16 4 20 2 13 -5 -5 -6
-22 -14 -38 -17 -20 -6 -26 -4 -23 6 2 8 7 27 11 43 5 24 3 27 -10 22 -30 -11
-38 7 -9 20 44 19 47 17 40 -30z m-1026 10 c-7 -7 -14 -6 -21 1 -9 9 -7 12 9
10 14 -1 18 -5 12 -11z m-3843 -28 c-3 -7 -5 -2 -5 12 0 14 2 19 5 13 2 -7 2
-19 0 -25z m5584 9 c-10 -9 -11 -8 -5 6 3 10 9 15 12 12 3 -3 0 -11 -7 -18z
m-803 -26 c16 -53 16 -54 -18 -36 -38 20 -43 19 -30 -6 13 -24 15 -21 -29 -44
-28 -14 -35 -14 -42 -3 -6 9 -9 9 -9 1 0 -7 -10 -17 -21 -24 -46 -24 -92 28
-62 70 14 21 53 29 53 11 0 -5 -9 -10 -19 -10 -10 0 -22 -8 -25 -17 -8 -21 17
-48 38 -40 21 8 20 25 -1 30 -17 4 -17 4 1 12 12 5 21 3 28 -6 9 -13 4 13 -9
47 -7 19 61 33 88 18 34 -19 40 -17 33 11 -10 41 12 28 24 -14z m-2144 -16 c3
-8 1 -15 -4 -15 -6 0 -10 7 -10 15 0 8 2 15 4 15 2 0 6 -7 10 -15z m-29 -5 c3
-5 1 -10 -4 -10 -6 0 -11 5 -11 10 0 6 2 10 4 10 3 0 8 -4 11 -10z m3058 -110
c50 -40 66 -144 32 -210 -28 -54 -119 -125 -174 -136 -66 -14 -125 60 -102
127 6 17 33 60 61 95 27 35 50 72 50 83 0 26 46 61 80 61 15 0 39 -9 53 -20z
m-1393 -112 c0 -16 -3 -19 -11 -11 -6 6 -8 16 -5 22 11 17 16 13 16 -11z m643
-37 c15 -6 27 -15 27 -20 0 -6 -16 -1 -35 10 -19 12 -35 26 -35 32 0 9 2 9 8
0 4 -6 20 -16 35 -22z m47 -76 c0 -5 -5 -3 -10 5 -5 8 -10 20 -10 25 0 6 5 3
10 -5 5 -8 10 -19 10 -25z m-5610 -87 c0 -4 -13 -8 -30 -8 -16 0 -30 4 -30 9
0 5 14 9 30 9 17 -1 30 -5 30 -10z m4904 -30 c6 -25 2 -29 -31 -43 -21 -9 -58
-21 -83 -27 -28 -7 -63 -27 -92 -52 -72 -64 -76 -67 -83 -56 -4 6 -11 8 -16 4
-6 -3 -5 -12 3 -22 12 -14 9 -15 -19 -9 -26 5 -31 3 -26 -8 3 -9 -1 -15 -10
-15 -9 0 -30 -12 -48 -27 -31 -26 -32 -27 -17 -4 10 13 50 49 91 80 41 31 102
78 135 106 69 56 174 117 183 107 4 -4 9 -19 13 -34z m656 7 c0 -5 -5 -3 -10
5 -5 8 -10 20 -10 25 0 6 5 3 10 -5 5 -8 10 -19 10 -25z m-280 -30 c0 -5 -5
-3 -10 5 -5 8 -10 20 -10 25 0 6 5 3 10 -5 5 -8 10 -19 10 -25z m271 -12 c-12
-20 -14 -14 -5 12 4 9 9 14 11 11 3 -2 0 -13 -6 -23z m-3398 -30 c-7 -2 -19
-2 -25 0 -7 3 -2 5 12 5 14 0 19 -2 13 -5z m2240 -33 c3 -11 2 -20 -3 -20 -4
0 -10 11 -12 25 -6 29 7 25 15 -5z m-980 -32 c-3 -16 -9 -28 -14 -28 -12 0
-11 4 3 35 14 31 18 29 11 -7z m2777 22 c0 -5 -4 -10 -10 -10 -5 0 -10 5 -10
10 0 6 5 10 10 10 6 0 10 -4 10 -10z m-1662 -46 c22 -6 21 -8 -23 -56 -26 -27
-57 -72 -71 -101 -15 -33 -21 -41 -17 -22 3 17 19 53 35 82 15 28 28 60 28 70
0 32 9 37 48 27z m1633 -21 c-12 -20 -14 -14 -5 12 4 9 9 14 11 11 3 -2 0 -13
-6 -23z m-61 7 c0 -5 -2 -10 -4 -10 -3 0 -8 5 -11 10 -3 6 -1 10 4 10 6 0 11
-4 11 -10z m-1690 -61 c0 -6 -4 -7 -10 -4 -5 3 -10 11 -10 16 0 6 5 7 10 4 6
-3 10 -11 10 -16z m1675 11 c3 -5 1 -10 -4 -10 -6 0 -11 5 -11 10 0 6 2 10 4
10 3 0 8 -4 11 -10z m60 -10 c3 -5 1 -10 -4 -10 -6 0 -11 5 -11 10 0 6 2 10 4
10 3 0 8 -4 11 -10z m-2784 -41 c-5 -13 -10 -19 -10 -12 -1 15 10 45 15 40 3
-2 0 -15 -5 -28z m2124 11 c3 -5 1 -10 -4 -10 -6 0 -11 5 -11 10 0 6 2 10 4
10 3 0 8 -4 11 -10z m165 0 c8 -5 11 -10 5 -10 -5 0 -17 5 -25 10 -8 5 -10 10
-5 10 6 0 17 -5 25 -10z m-1232 -25 c-3 -3 -9 2 -12 12 -6 14 -5 15 5 6 7 -7
10 -15 7 -18z m1302 5 c12 -8 12 -10 -5 -10 -11 0 -27 5 -35 10 -12 8 -12 10
5 10 11 0 27 -5 35 -10z m410 6 c0 -3 -4 -8 -10 -11 -5 -3 -10 -1 -10 4 0 6 5
11 10 11 6 0 10 -2 10 -4z m-2532 -23 c-2 -10 -11 -19 -21 -21 -16 -3 -17 -1
-5 17 16 25 31 27 26 4z m2462 8 c0 -11 -50 -61 -61 -61 -5 0 -9 5 -9 10 0 6
7 10 15 10 8 0 22 11 32 25 20 27 23 29 23 16z m-745 -11 c3 -5 1 -10 -4 -10
-6 0 -11 5 -11 10 0 6 2 10 4 10 3 0 8 -4 11 -10z m495 -10 c0 -5 -4 -10 -10
-10 -5 0 -10 5 -10 10 0 6 5 10 10 10 6 0 10 -4 10 -10z m347 -12 c-3 -8 -6
-5 -6 6 -1 11 2 17 5 13 3 -3 4 -12 1 -19z m-2597 -18 c0 -5 -4 -10 -10 -10
-5 0 -10 5 -10 10 0 6 5 10 10 10 6 0 10 -4 10 -10z"/>
<path d="M7339 1615 c-1 -3 -2 -11 -3 -17 -1 -16 -36 -24 -36 -9 0 20 -17 11
-28 -14 -15 -32 -15 -38 -2 -30 6 4 7 -1 3 -11 -5 -15 -7 -15 -15 0 -6 10 -4
24 3 38 11 21 11 22 -4 9 -10 -7 -17 -11 -17 -8 0 4 -18 0 -40 -8 -36 -13 -42
-13 -46 0 -4 8 -10 15 -16 15 -10 0 -3 -30 18 -74 8 -16 14 -35 14 -41 0 -7 7
-16 16 -19 9 -4 13 -13 10 -24 -9 -27 27 -46 57 -30 12 7 26 19 30 26 10 14
37 16 37 2 0 -5 5 -10 10 -10 6 0 10 14 10 31 0 16 4 28 9 25 5 -3 11 22 13
57 4 48 2 64 -10 71 -12 7 -12 10 -1 17 10 6 11 9 2 9 -7 0 -14 -2 -14 -5z
m-152 -147 c-3 -8 -6 -5 -6 6 -1 11 2 17 5 13 3 -3 4 -12 1 -19z m126 5 c-7
-2 -19 -2 -25 0 -7 3 -2 5 12 5 14 0 19 -2 13 -5z"/>
<path d="M7096 1583 c-7 -16 -5 -16 30 2 l29 15 -27 -2 c-15 -1 -30 -8 -32
-15z"/>
<path d="M7371 1484 c0 -11 3 -14 6 -6 3 7 2 16 -1 19 -3 4 -6 -2 -5 -13z"/>
<path d="M7472 1410 c0 -14 2 -19 5 -12 2 6 2 18 0 25 -3 6 -5 1 -5 -13z"/>
<path d="M7048 1401 c-12 -14 -11 -14 4 -3 14 11 20 10 37 -7 14 -14 21 -16
24 -7 3 7 -8 17 -24 23 -23 9 -31 8 -41 -6z"/>
<path d="M7130 1412 c0 -5 -3 -17 -6 -26 -4 -10 -1 -16 9 -16 11 0 15 7 12 21
-5 24 -15 39 -15 21z"/>
<path d="M7001 1384 c0 -11 3 -14 6 -6 3 7 2 16 -1 19 -3 4 -6 -2 -5 -13z"/>
<path d="M7041 1366 c-1 -12 -6 -16 -16 -12 -17 6 -19 -2 -6 -23 6 -9 11 -10
15 -3 4 6 14 9 24 6 11 -4 13 -3 6 3 -7 4 -14 17 -17 28 -4 18 -5 18 -6 1z"/>
<path d="M7330 1370 c0 -5 5 -10 10 -10 6 0 10 5 10 10 0 6 -4 10 -10 10 -5 0
-10 -4 -10 -10z"/>
<path d="M7110 1351 c0 -6 4 -13 10 -16 6 -3 7 1 4 9 -7 18 -14 21 -14 7z"/>
<path d="M7480 1339 c0 -5 -4 -8 -9 -5 -5 4 -7 -3 -4 -14 3 -11 13 -20 22 -21
9 0 26 -2 39 -5 13 -2 21 0 17 5 -3 6 3 14 12 20 16 9 15 11 -10 20 -36 14
-67 14 -67 0z"/>
<path d="M7597 1319 c7 -7 15 -10 18 -7 3 3 -2 9 -12 12 -14 6 -15 5 -6 -5z"/>
<path d="M7196 1291 c-3 -5 0 -11 7 -14 8 -3 14 1 14 9 0 16 -13 19 -21 5z"/>
<path d="M7272 1276 c-30 -10 -39 -30 -14 -32 24 -3 26 -4 14 -16 -17 -17 4
-48 33 -46 22 2 23 6 22 52 -2 54 -7 58 -55 42z"/>
<path d="M7485 1280 c3 -5 10 -10 16 -10 5 0 9 5 9 10 0 6 -7 10 -16 10 -8 0
-12 -4 -9 -10z"/>
<path d="M7085 1250 c-4 -6 -11 -7 -17 -4 -7 4 -8 2 -4 -5 6 -9 12 -9 24 1 10
7 19 14 21 15 2 2 -1 3 -7 3 -6 0 -14 -5 -17 -10z"/>
<path d="M7166 1207 c3 -10 9 -15 12 -12 3 3 0 11 -7 18 -10 9 -11 8 -5 -6z"/>
<path d="M7095 1172 c-12 -12 -4 -52 10 -52 8 0 15 5 15 11 0 5 -5 7 -11 3 -6
-3 -4 5 5 18 14 22 14 25 1 25 -8 0 -17 -3 -20 -5z"/>
<path d="M7150 1159 c0 -5 -5 -7 -12 -3 -7 4 -8 3 -4 -5 4 -6 12 -9 17 -6 5 4
9 1 9 -4 0 -6 9 -11 19 -11 11 0 21 -6 24 -12 2 -7 4 2 5 21 1 30 0 31 -13 15
-7 -11 -17 -16 -21 -11 -4 4 -2 7 4 7 7 0 12 5 12 10 0 6 -9 10 -20 10 -11 0
-20 -5 -20 -11z"/>
<path d="M7486 1141 c-4 -5 3 -7 14 -4 23 6 26 13 6 13 -8 0 -17 -4 -20 -9z"/>
<path d="M7263 1113 c-3 -10 -8 -22 -11 -26 -2 -5 5 -4 16 2 13 7 19 17 16 26
-8 20 -13 19 -21 -2z"/>
<path d="M6206 1331 c-4 -5 -3 -11 1 -13 5 -1 18 -23 30 -48 16 -33 22 -39 22
-23 1 25 -29 93 -40 93 -4 0 -10 -4 -13 -9z"/>
<path d="M6160 1201 c0 -5 12 -16 26 -26 22 -14 25 -23 22 -55 -3 -32 -1 -37
10 -27 20 16 32 51 26 74 -7 25 -84 56 -84 34z"/>
<path d="M5625 1070 c-10 -11 -21 -17 -25 -15 -4 3 -10 -4 -13 -14 -2 -10 -22
-27 -43 -37 -59 -27 -75 -43 -64 -65 13 -23 25 -19 125 46 44 29 90 57 103 64
12 6 22 16 22 22 0 6 -4 7 -10 4 -5 -3 -19 -8 -31 -10 -17 -4 -19 -2 -9 10 20
24 -33 19 -55 -5z"/>
<path d="M6185 1059 c-10 -15 3 -25 16 -12 7 7 7 13 1 17 -6 3 -14 1 -17 -5z"/>
<path d="M5700 1011 c-46 -8 -118 -50 -126 -73 -3 -10 -10 -15 -16 -12 -6 4
-8 -1 -6 -12 4 -23 52 -47 91 -46 36 1 63 22 29 22 -12 0 -22 5 -22 10 0 6 6
10 14 10 7 0 29 17 47 38 29 31 39 37 69 34 26 -2 31 0 20 8 -11 7 -11 10 -2
10 7 0 10 5 7 10 -7 11 -48 11 -105 1z m-30 -71 c0 -4 -11 -5 -25 -2 -27 5
-33 17 -12 25 13 5 37 -10 37 -23z"/>
<path d="M5745 680 c3 -5 12 -10 18 -10 7 0 29 -9 49 -20 21 -11 43 -17 51
-14 7 2 26 0 42 -6 l28 -11 -50 -32 c-58 -38 -83 -61 -83 -78 0 -7 -18 -29
-40 -49 -47 -43 -104 -58 -130 -35 -9 8 -26 15 -37 15 -57 0 -113 36 -159 100
-26 37 -24 38 -29 -33 -2 -29 28 -77 47 -77 6 0 20 -8 30 -17 10 -9 27 -17 37
-18 11 -1 27 -8 37 -16 16 -12 17 -12 9 1 -4 8 -17 26 -29 40 -11 14 0 6 25
-17 35 -34 52 -43 79 -43 47 0 80 10 80 24 1 16 200 224 200 208 0 -7 5 -10
10 -7 6 4 10 -11 11 -37 0 -33 2 -38 9 -23 5 11 9 37 9 57 1 47 -18 61 -124
88 -89 23 -99 24 -90 10z"/>
<path d="M5600 505 c-19 -14 -48 -25 -64 -25 -24 0 -27 -3 -16 -10 22 -14 72
-12 95 4 11 7 35 17 53 21 l34 7 -27 14 c-35 18 -35 18 -75 -11z"/>
<path d="M5655 451 c-3 -5 -1 -12 5 -16 5 -3 10 1 10 9 0 18 -6 21 -15 7z"/>
<path d="M5590 338 c0 -17 50 -115 66 -129 26 -22 54 -31 54 -17 0 6 7 16 17
23 11 8 13 14 5 19 -7 4 -12 2 -12 -4 0 -6 -5 -8 -10 -5 -10 6 -7 45 4 64 9
14 -24 22 -45 10 -21 -11 -39 -3 -66 30 -7 8 -13 12 -13 9z"/>
<path d="M5750 205 c0 -8 -4 -15 -10 -15 -5 0 -10 -5 -10 -11 0 -8 4 -8 15 1
8 6 18 9 22 7 5 -3 10 3 10 14 1 10 -5 19 -13 19 -8 0 -14 -7 -14 -15z"/>
<path d="M3004 1323 l-31 -4 -7 -86 c-4 -47 -6 -86 -4 -87 9 -6 108 7 108 15
0 5 -20 6 -45 2 l-45 -6 0 32 c0 28 3 31 40 37 50 8 53 26 3 22 -29 -2 -38 1
-41 15 -6 28 17 47 54 47 19 0 34 5 34 10 0 10 -7 10 -66 3z"/>
<path d="M2770 1281 c-75 -75 -1 -183 95 -139 21 9 25 18 25 53 0 40 -2 42
-25 37 -28 -5 -35 -25 -8 -20 24 4 29 -33 7 -49 -28 -20 -71 -16 -88 9 -39 56
1 122 71 116 21 -1 38 2 38 7 0 6 -19 11 -43 13 -36 3 -47 -1 -72 -27z"/>
<path d="M2486 1275 c-28 -29 -20 -63 19 -82 20 -10 35 -24 35 -34 0 -25 -30
-40 -53 -27 -21 11 -33 5 -22 -11 8 -14 51 -14 76 -1 12 7 19 21 19 41 0 24
-7 32 -35 46 -43 21 -46 58 -5 59 33 0 38 18 7 22 -14 2 -32 -4 -41 -13z"/>
<path d="M2372 1250 c0 -16 4 -30 9 -30 5 0 9 6 9 14 0 8 3 21 6 30 4 10 1 16
-8 16 -10 0 -15 -11 -16 -30z"/>
<path d="M2258 1273 c-57 -4 -83 -23 -32 -23 l27 0 -6 -80 c-4 -49 -3 -80 3
-80 6 0 10 26 10 58 0 77 8 99 36 106 13 4 24 11 24 16 0 6 -1 9 -2 8 -2 -1
-29 -3 -60 -5z"/>
<path d="M2040 1216 c0 -24 -3 -64 -6 -90 l-7 -46 57 0 c31 0 56 5 56 10 0 6
-21 10 -46 10 -44 0 -45 1 -42 28 3 23 8 27 41 30 47 4 49 22 2 22 -32 0 -35
2 -35 30 0 28 2 30 40 30 22 0 40 5 40 10 0 6 -22 10 -50 10 l-50 0 0 -44z"/>
<path d="M6641 846 c2 -2 24 -6 48 -9 29 -4 40 -2 30 4 -13 8 -88 14 -78 5z"/>
<path d="M6620 800 c-13 -8 -13 -10 2 -10 9 0 20 5 23 10 8 13 -5 13 -25 0z"/>
<path d="M6671 796 c2 -2 33 -16 69 -30 36 -15 71 -30 78 -33 6 -3 12 -1 12 5
0 5 -33 21 -74 36 -70 24 -95 31 -85 22z"/>
<path d="M6828 793 c7 -3 16 -2 19 1 4 3 -2 6 -13 5 -11 0 -14 -3 -6 -6z"/>
<path d="M6606 732 c-22 -24 -24 -31 -13 -40 16 -13 37 2 37 28 0 13 2 13 10
0 8 -12 10 -12 15 2 7 18 -1 38 -14 38 -4 0 -20 -13 -35 -28z"/>
<path d="M6453 523 c-18 -2 -33 -9 -33 -14 0 -11 59 -8 66 3 3 5 10 5 16 2 7
-4 8 -2 4 4 -4 7 -10 11 -14 10 -4 0 -22 -3 -39 -5z"/>
<path d="M6516 465 c-11 -8 -18 -15 -15 -16 2 0 20 -1 41 -3 33 -3 35 -1 25
16 -14 22 -25 22 -51 3z"/>
<path d="M6646 355 c-11 -8 -17 -17 -14 -20 2 -3 13 4 23 15 21 23 18 25 -9 5z"/>
<path d="M7590 1090 c0 -5 4 -10 9 -10 6 0 13 5 16 10 3 6 -1 10 -9 10 -9 0
-16 -4 -16 -10z"/>
<path d="M7611 1061 c-7 -5 -9 -11 -4 -14 5 -3 15 -2 22 2 7 5 9 11 4 14 -5 3
-15 2 -22 -2z"/>
<path d="M7554 916 c-10 -26 4 -48 28 -44 17 2 23 10 23 28 0 18 -6 26 -23 28
-13 2 -25 -3 -28 -12z"/>
<path d="M1658 884 c-3 -5 -9 -83 -13 -173 l-7 -164 57 6 c43 4 67 13 93 35
59 47 75 76 79 139 5 64 -15 108 -61 138 -28 19 -140 33 -148 19z m136 -95
c32 -47 -13 -153 -63 -147 -24 3 -26 7 -32 68 -3 36 -2 75 2 87 14 39 63 35
93 -8z"/>
<path d="M7341 854 c-1 -7 -10 -14 -22 -17 -28 -7 -15 -26 14 -20 20 4 21 3 5
-10 -25 -20 -22 -27 7 -27 14 0 25 3 24 8 -1 16 -28 76 -28 66z"/>
<path d="M2020 1834 c-19 -51 -19 -54 -15 -54 8 0 37 71 32 77 -4 3 -11 -7
-17 -23z"/>
<path d="M583 1823 c-28 -5 -30 -23 -3 -23 11 0 20 -4 20 -10 0 -5 14 -10 30
-10 21 0 30 -5 30 -16 0 -24 26 -44 59 -44 16 0 33 -4 36 -10 3 -5 19 -10 34
-10 20 0 30 6 34 20 4 16 -2 24 -29 35 -19 8 -34 18 -34 24 0 5 -18 12 -40 16
-25 4 -40 12 -40 21 0 14 -44 17 -97 7z"/>
<path d="M1986 1755 c-9 -26 -7 -32 5 -12 6 10 9 21 6 23 -2 3 -7 -2 -11 -11z"/>
<path d="M1924 1719 c0 -10 4 -19 8 -19 4 0 8 6 8 14 0 8 -4 17 -8 20 -4 2 -8
-4 -8 -15z"/>
<path d="M1940 1641 c0 -6 4 -13 10 -16 6 -3 7 1 4 9 -7 18 -14 21 -14 7z"/>
<path d="M1140 1601 c0 -10 6 -21 14 -24 19 -7 25 0 19 24 -7 25 -33 25 -33 0z"/>
<path d="M8893 1398 c-16 -18 -19 -32 -15 -62 4 -34 2 -38 -12 -33 -14 6 58
-108 123 -192 l19 -25 -5 27 c-3 15 -9 25 -13 22 -4 -3 -7 6 -6 19 0 13 4 22
8 20 7 -5 3 125 -7 181 -5 30 -14 44 -33 53 -34 16 -35 16 -59 -10z"/>
<path d="M3163 1333 c-37 -5 -46 -24 -10 -20 21 2 22 -1 22 -76 0 -42 3 -77 6
-77 7 0 19 78 19 126 0 30 3 34 25 34 14 0 25 5 25 10 0 10 -24 11 -87 3z"/>
<path d="M3261 1328 c0 -9 -11 -18 -23 -20 -21 -3 -23 -9 -25 -73 -1 -46 1
-63 6 -50 37 84 52 129 48 143 -4 16 -5 16 -6 0z"/>
<path d="M11917 1170 l-76 -120 64 0 c63 0 65 -1 65 -25 0 -18 5 -25 20 -25
15 0 20 7 20 25 0 18 5 25 20 25 15 0 20 7 20 25 0 18 -5 25 -20 25 -19 0 -20
7 -20 95 0 52 -4 95 -9 95 -4 0 -43 -54 -84 -120z m53 -35 c0 -31 -3 -35 -25
-35 l-24 0 20 35 c12 19 23 35 25 35 2 0 4 -16 4 -35z"/>
<path d="M12142 1270 c-92 -56 -96 -195 -7 -250 41 -25 116 -27 156 -3 27 16
29 21 29 85 l0 68 -50 0 c-46 0 -50 -2 -50 -24 0 -19 6 -25 27 -28 37 -4 42
-42 7 -64 -21 -14 -31 -15 -64 -5 -49 15 -70 44 -70 97 0 35 5 47 31 68 33 28
95 36 117 14 8 -8 15 -8 27 2 22 18 19 28 -15 45 -40 21 -99 19 -138 -5z"/>
<path d="M1870 1153 l0 -88 50 3 c27 2 50 8 50 14 0 6 -17 8 -40 6 l-40 -4 0
78 c0 45 -4 78 -10 78 -6 0 -10 -36 -10 -87z"/>
<path d="M3787 1020 c-4 -41 -8 -130 -10 -198 l-4 -122 81 6 c45 3 92 8 106
11 23 5 24 6 5 13 -11 5 -35 9 -53 9 -45 1 -88 25 -96 53 -3 13 -6 77 -7 143
-1 146 -14 195 -22 85z"/>
<path d="M8430 962 c0 -10 7 -19 14 -19 11 0 13 5 5 19 -5 10 -12 18 -14 18
-3 0 -5 -8 -5 -18z"/>
<path d="M8870 926 c0 -9 5 -16 11 -16 5 0 8 -3 6 -7 -2 -5 2 -26 9 -48 l13
-40 -3 47 c-2 26 -10 54 -20 63 -14 15 -16 15 -16 1z"/>
<path d="M3360 833 c-14 -31 -26 -60 -28 -65 -5 -10 95 -11 101 0 3 4 -7 33
-22 64 l-26 58 -25 -57z"/>
<path d="M8921 844 c0 -11 3 -14 6 -6 3 7 2 16 -1 19 -3 4 -6 -2 -5 -13z"/>
<path d="M10990 675 l0 -65 40 0 c22 0 40 5 40 10 0 6 -13 10 -30 10 -30 0
-30 1 -30 55 0 30 -4 55 -10 55 -6 0 -10 -28 -10 -65z"/>
<path d="M11080 675 l0 -65 40 0 c22 0 40 5 40 10 0 6 -13 10 -30 10 -20 0
-30 5 -30 15 0 9 9 15 25 15 14 0 25 5 25 10 0 6 -11 10 -25 10 -18 0 -25 5
-25 20 0 17 7 20 50 20 l50 0 0 -55 c0 -30 5 -55 10 -55 6 0 10 25 10 55 0 42
3 55 15 55 8 0 15 5 15 10 0 6 -35 10 -85 10 l-85 0 0 -65z"/>
<path d="M11260 715 c0 -14 5 -25 10 -25 6 0 10 11 10 25 0 14 -4 25 -10 25
-5 0 -10 -11 -10 -25z"/>
<path d="M11302 728 c-20 -20 -14 -48 13 -60 34 -15 34 -42 0 -35 -16 3 -24 0
-22 -7 2 -6 17 -11 33 -11 24 0 30 5 32 27 3 22 -2 30 -23 40 -30 13 -28 34 4
31 24 -3 28 12 5 21 -22 8 -28 8 -42 -6z"/>
<path d="M11447 729 c-27 -16 -39 -56 -26 -82 15 -29 28 -37 60 -37 31 0 49
17 49 47 0 18 -6 23 -25 23 -14 0 -25 -4 -25 -10 0 -5 7 -10 15 -10 17 0 20
-16 4 -25 -16 -11 -56 3 -63 21 -4 9 1 28 10 41 13 20 21 24 45 19 30 -6 40 7
13 18 -22 8 -36 7 -57 -5z"/>
<path d="M11540 675 l0 -65 40 0 c22 0 40 5 40 10 0 6 -13 10 -30 10 -20 0
-30 5 -30 15 0 9 9 15 25 15 14 0 25 5 25 10 0 6 -11 10 -25 10 -18 0 -25 5
-25 20 0 15 7 20 25 20 14 0 25 5 25 10 0 6 -16 10 -35 10 l-35 0 0 -65z"/>
<path d="M11620 730 c0 -5 9 -10 20 -10 18 0 20 -7 20 -55 0 -30 5 -55 10 -55
6 0 10 25 10 55 0 42 3 55 15 55 8 0 15 5 15 10 0 6 -20 10 -45 10 -25 0 -45
-4 -45 -10z"/>
<path d="M11760 675 l0 -65 33 0 c42 0 67 26 67 68 0 36 -30 62 -72 62 -28 0
-28 -1 -28 -65z m61 35 c36 -20 18 -80 -23 -80 -14 0 -18 8 -18 38 0 52 7 59
41 42z"/>
<path d="M11880 676 c0 -36 4 -66 9 -66 12 0 13 117 1 125 -6 4 -10 -18 -10
-59z"/>
<path d="M11933 725 c-45 -32 -20 -115 34 -115 39 0 53 11 53 41 0 24 -4 29
-25 29 -14 0 -25 -4 -25 -10 0 -5 7 -10 15 -10 8 0 15 -7 15 -15 0 -18 -41
-20 -58 -3 -17 17 -15 53 3 68 9 7 25 10 41 6 19 -5 25 -3 22 6 -7 19 -50 21
-75 3z"/>
<path d="M12030 675 c0 -37 4 -65 10 -65 6 0 10 28 10 65 0 37 -4 65 -10 65
-6 0 -10 -28 -10 -65z"/>
<path d="M12060 730 c0 -5 7 -10 15 -10 12 0 15 -13 15 -55 0 -30 5 -55 10
-55 6 0 10 25 10 55 0 42 3 55 15 55 8 0 15 5 15 10 0 6 -18 10 -40 10 -22 0
-40 -4 -40 -10z"/>
<path d="M12147 680 c-26 -62 -28 -85 -5 -62 7 7 21 12 33 12 12 0 26 -5 33
-12 24 -24 22 1 -6 62 l-28 63 -27 -63z m43 -21 c0 -5 -7 -9 -15 -9 -15 0 -20
12 -9 23 8 8 24 -1 24 -14z"/>
<path d="M12240 675 l0 -65 40 0 c22 0 40 5 40 10 0 6 -13 10 -30 10 -30 0
-30 1 -30 55 0 30 -4 55 -10 55 -6 0 -10 -28 -10 -65z"/>
<path d="M4250 681 c-24 -7 -24 -7 -5 -19 11 -6 14 -12 8 -12 -7 0 -13 -12
-13 -28 0 -15 -5 -33 -11 -39 -7 -7 -6 -12 4 -16 9 -3 19 4 26 19 11 25 27
105 20 103 -2 -1 -15 -4 -29 -8z"/>
<path d="M4010 653 c0 -21 3 -24 9 -14 5 8 7 20 4 28 -8 21 -13 15 -13 -14z"/>
<path d="M4257 552 c-14 -15 -15 -19 -2 -19 8 0 17 7 20 15 8 23 0 24 -18 4z"/>
<path d="M3110 440 c30 -9 80 -20 110 -23 49 -6 51 -5 20 4 -19 6 -48 16 -65
24 -16 7 -50 13 -75 13 l-45 0 55 -18z"/>
<path d="M4741 115 c-1 -16 -8 -39 -16 -49 -21 -28 -19 -33 15 -51 45 -23 61
-20 58 14 -2 21 -6 27 -18 23 -8 -3 -12 -2 -8 3 4 4 3 14 -3 21 -6 7 -14 25
-19 41 l-8 28 -1 -30z"/>
<path d="M5210 90 c-9 -16 -8 -20 5 -20 8 0 15 9 15 20 0 11 -2 20 -5 20 -2 0
-9 -9 -15 -20z"/>
<path d="M5166 61 c-7 -11 3 -41 14 -41 4 0 15 8 24 19 15 17 15 19 1 25 -23
8 -33 8 -39 -3z"/>
</g>
</svg>
